# File created by Blade
# Date/Time:  Thu Sep 25 15:55:53 2014
# Frame Rate: 120.000 fps
#------------------------------------------------------
:FULLY-SPECIFIED
:DEGREES
786
root -1.760123 32.870642 3.182640 13.435773 -3.067256 -2.809537
Spine -13.340770 6.252354 2.187019
Head -14.758141 -5.588933 11.164188
LeftShoulder -17.094886 23.992377 28.745107
LeftArm 12.654987 -25.423922 -21.701595
LeftForeArm 12.700188 -0.000000 13.239379
LeftHand -29.850386 0.000000 -6.174264
LeftHandThumb1 -26.253704 0.000000 33.147579
RightShoulder -20.346766 9.471638 -45.070282
RightArm -12.610081 9.464619 21.274278
RightForeArm -31.871974 -0.000000 16.407937
RightHand -13.094869 0.000000 6.873919
RightHandThumb1 -24.326973 -0.000000 -32.862282
LeftUpLeg -5.803114 14.022074 -2.390056
LeftLeg -1.633153 -0.000000 0.000000
LeftFoot -7.745366 -5.589860 -22.030163
LeftToeBase 5.562376 -0.000000 -0.000000
RightUpLeg -7.665844 -1.833482 2.506567
RightLeg 2.441599 -0.000000 -0.000000
RightFoot -9.165157 2.730621 -3.295849
RightToeBase -5.211673 -0.000000 0.000000
787
root -1.758014 32.871775 3.163878 13.519988 -2.918012 -2.800977
Spine -13.337852 6.154881 2.080800
Head -14.945906 -5.700134 11.398521
LeftShoulder -17.086657 23.831453 28.936429
LeftArm 12.522511 -25.881408 -21.890597
LeftForeArm 12.908393 0.000000 12.919468
LeftHand -29.562116 -0.000000 -6.737296
LeftHandThumb1 -26.253704 0.000000 33.147579
RightShoulder -20.468685 9.459014 -45.005436
RightArm -12.850713 9.811101 21.299085
RightForeArm -31.998596 -0.000000 16.155247
RightHand -13.121321 0.000000 6.898694
RightHandThumb1 -24.326973 -0.000000 -32.862282
LeftUpLeg -5.910137 14.003668 -2.420053
LeftLeg -1.694199 -0.000000 0.000000
LeftFoot -7.661662 -5.645967 -22.044264
LeftToeBase 5.576162 -0.000000 -0.000000
RightUpLeg -7.762960 -1.931974 2.535073
RightLeg 2.412527 -0.000000 -0.000000
RightFoot -9.131070 2.665439 -3.324953
RightToeBase -5.231963 -0.000000 0.000000
788
root -1.757844 32.872816 3.145465 13.596023 -2.765660 -2.816282
Spine -13.334547 6.058505 2.012672
Head -15.099758 -5.820420 11.593206
LeftShoulder -17.045192 23.659318 29.097740
LeftArm 12.320324 -26.227530 -22.080791
LeftForeArm 12.928114 -0.000000 12.745391
LeftHand -29.419964 0.000000 -7.045039
LeftHandThumb1 -26.253704 0.000000 33.147579
RightShoulder -20.596383 9.493581 -44.861143
RightArm -13.057003 10.189717 21.291790
RightForeArm -32.359791 -0.000000 15.978623
RightHand -13.289815 0.000000 7.373898
RightHandThumb1 -24.326973 -0.000000 -32.862282
LeftUpLeg -5.992416 13.967024 -2.421341
LeftLeg -1.784669 -0.000000 0.000000
LeftFoot -7.593870 -5.671843 -22.012084
LeftToeBase 5.589501 -0.000000 -0.000000
RightUpLeg -7.843161 -2.042183 2.586808
RightLeg 2.372777 -0.000000 -0.000000
RightFoot -9.083059 2.634840 -3.303206
RightToeBase -5.192917 -0.000000 0.000000
789
root -1.754164 32.874123 3.126573 13.673440 -2.595522 -2.825368
Spine -13.341045 5.951749 1.966646
Head -15.197404 -5.930314 11.720320
LeftShoulder -17.018317 23.573865 29.184868
LeftArm 12.236671 -26.479000 -22.300836
LeftForeArm 12.629148 -0.000000 12.540899
LeftHand -29.563303 -0.000000 -7.111282
LeftHandThumb1 -26.253704 0.000000 33.147579
RightShoulder -20.737953 9.514868 -44.783064
RightArm -13.254347 10.342210 21.495736
RightForeArm -32.302042 -0.000000 15.803515
RightHand -13.397116 -0.000000 7.128966
RightHandThumb1 -24.326973 -0.000000 -32.862282
LeftUpLeg -6.083826 13.860578 -2.424961
LeftLeg -1.860648 -0.000000 0.000000
LeftFoot -7.550425 -5.644239 -21.943540
LeftToeBase 5.680061 -0.000000 -0.000000
RightUpLeg -7.913703 -2.159512 2.626071
RightLeg 2.309224 -0.000000 -0.000000
RightFoot -9.041409 2.638291 -3.230744
RightToeBase -5.127575 -0.000000 0.000000
790
root -1.754337 32.875202 3.109133 13.750708 -2.436593 -2.863104
Spine -13.372781 5.862422 1.951732
Head -15.211192 -6.019365 11.803620
LeftShoulder -16.938030 23.459036 29.271789
LeftArm 12.122100 -26.762599 -22.542066
LeftForeArm 12.629265 -0.000000 12.372874
LeftHand -29.590784 0.000000 -7.085043
LeftHandThumb1 -26.253704 0.000000 33.147579
RightShoulder -20.860370 9.567494 -44.681812
RightArm -13.483064 10.577595 21.710889
RightForeArm -32.270905 -0.000000 15.727036
RightHand -13.416473 -0.000000 7.161400
RightHandThumb1 -24.326973 -0.000000 -32.862282
LeftUpLeg -6.150337 13.730366 -2.392319
LeftLeg -1.978889 -0.000000 0.000000
LeftFoot -7.505187 -5.564842 -21.903668
LeftToeBase 5.670747 -0.000000 -0.000000
RightUpLeg -7.976957 -2.256186 2.691301
RightLeg 2.238427 -0.000000 -0.000000
RightFoot -8.960721 2.642454 -3.141997
RightToeBase -5.158737 -0.000000 0.000000
